<?xml version="1.0" encoding="utf-8"?>
<!-- Generator: Adobe Illustrator 22.1.0, SVG Export Plug-In . SVG Version: 6.00 Build 0)  -->
<svg version="1.1" id="Layer_1" xmlns="http://www.w3.org/2000/svg" xmlns:xlink="http://www.w3.org/1999/xlink" x="0px" y="0px"
	 viewBox="0 0 800 800" style="enable-background:new 0 0 800 800;" xml:space="preserve">
<style type="text/css">
	.st0{fill:#FFFFFF;}
	.st1{fill:#231F20;}
	.st2{fill:#A7A9AC;}
	.st3{fill:#808285;}
	.st4{fill:#F1F2F2;}
	.st5{fill:#FF8592;}
	.st6{fill:#40E5FF;}
	.st7{fill:#FFF380;}
	.st8{fill:#AADC00;}
	.st9{font-family:'Lato-Regular';}
	.st10{font-size:55px;}
</style>
<g>
	<rect class="st0" width="800" height="800"/>
</g>
<g>
	<path class="st0" d="M739.8,489.9h-19.8l-25.6-22.2l-25.6,22.2H649c-7.5,0-13.6,6.1-13.6,13.6v90.8c0,7.5,6.1,13.6,13.6,13.6h19.8
		l25.6,22.2l25.6-22.2h19.8c7.5,0,13.6-6.1,13.6-13.6v-90.8C753.4,496,747.3,489.9,739.8,489.9z"/>
	<path d="M694.4,631.8c-0.4,0-0.8-0.1-1.1-0.4l-25.2-21.8H649c-8.4,0-15.3-6.9-15.3-15.3v-90.8c0-8.4,6.9-15.3,15.3-15.3h19.1
		l25.2-21.8c0.6-0.6,1.6-0.6,2.2,0l25.2,21.8h19.1c8.4,0,15.3,6.9,15.3,15.3v90.8c0,8.4-6.9,15.3-15.3,15.3h-19.1l-25.2,21.8
		C695.2,631.7,694.8,631.8,694.4,631.8z M649,491.6c-6.6,0-11.9,5.3-11.9,11.9v90.8c0,6.6,5.3,11.9,11.9,11.9h19.8
		c0.4,0,0.8,0.1,1.1,0.4l24.5,21.2l24.5-21.2c0.3-0.3,0.7-0.4,1.1-0.4h19.8c6.6,0,11.9-5.3,11.9-11.9v-90.8
		c0-6.6-5.3-11.9-11.9-11.9h-19.8c-0.4,0-0.8-0.1-1.1-0.4l-24.5-21.2l-24.5,21.2c-0.3,0.3-0.7,0.4-1.1,0.4H649z"/>
</g>
<g>
	<path class="st0" d="M145.1,420.4h-19.8l-25.6-22.2l-25.6,22.2H54.3c-7.5,0-13.6,6.1-13.6,13.6v90.8c0,7.5,6.1,13.6,13.6,13.6h19.8
		l25.6,22.2l25.6-22.2h19.8c7.5,0,13.6-6.1,13.6-13.6V434C158.7,426.5,152.6,420.4,145.1,420.4z"/>
	<path d="M99.7,562.3c-0.4,0-0.8-0.1-1.1-0.4l-25.2-21.8H54.3c-8.4,0-15.3-6.9-15.3-15.3V434c0-8.4,6.9-15.3,15.3-15.3h19.1
		l25.2-21.8c0.6-0.6,1.6-0.6,2.2,0l25.2,21.8h19.1c8.4,0,15.3,6.9,15.3,15.3v90.8c0,8.4-6.9,15.3-15.3,15.3H126l-25.2,21.8
		C100.5,562.2,100.1,562.3,99.7,562.3z M54.3,422.1c-6.6,0-11.9,5.3-11.9,11.9v90.8c0,6.6,5.3,11.9,11.9,11.9h19.8
		c0.4,0,0.8,0.1,1.1,0.4l24.5,21.2l24.5-21.2c0.3-0.3,0.7-0.4,1.1-0.4h19.8c6.6,0,11.9-5.3,11.9-11.9V434c0-6.6-5.3-11.9-11.9-11.9
		h-19.8c-0.4,0-0.8-0.1-1.1-0.4l-24.5-21.2l-24.5,21.2c-0.3,0.3-0.7,0.4-1.1,0.4H54.3z"/>
</g>
<g>
	<path class="st0" d="M604.7,583.8V366.1c0-13-10.5-23.5-23.5-23.5H212c-13,0-23.5,10.5-23.5,23.5v217.7H604.7z"/>
	<path class="st1" d="M604.7,585.5H188.5c-0.9,0-1.7-0.8-1.7-1.7V366.1c0-13.9,11.3-25.2,25.2-25.2h369.2
		c13.9,0,25.2,11.3,25.2,25.2v217.7C606.4,584.8,605.7,585.5,604.7,585.5z M190.2,582.1H603v-216c0-12-9.8-21.8-21.8-21.8H212
		c-12,0-21.8,9.8-21.8,21.8V582.1z"/>
</g>
<g>
	<rect x="187.9" y="583.8" class="st2" width="417.4" height="35.7"/>
	<path class="st1" d="M605.3,621.3H187.9c-0.9,0-1.7-0.8-1.7-1.7v-35.7c0-0.9,0.8-1.7,1.7-1.7h417.4c0.9,0,1.7,0.8,1.7,1.7v35.7
		C607,620.5,606.2,621.3,605.3,621.3z M189.6,617.9h414v-32.3h-414V617.9z"/>
</g>
<g>
	<rect x="203.2" y="357.9" class="st3" width="386.7" height="210.6"/>
	<path d="M590,570.2H203.2c-0.9,0-1.7-0.8-1.7-1.7V357.9c0-0.9,0.8-1.7,1.7-1.7H590c0.9,0,1.7,0.8,1.7,1.7v210.6
		C591.7,569.4,590.9,570.2,590,570.2z M204.9,566.8h383.3V359.6H204.9V566.8z"/>
</g>
<g>
	<polygon class="st4" points="459.1,673.2 334.1,673.2 341.7,619.6 451.5,619.6 	"/>
	<path class="st1" d="M459.2,674.9C459.2,674.9,459.2,674.9,459.2,674.9H334.1c-0.5,0-1-0.2-1.3-0.6c-0.3-0.4-0.5-0.9-0.4-1.4
		l7.7-53.6c0.1-0.8,0.8-1.5,1.7-1.5h109.8c0.8,0,1.6,0.6,1.7,1.5l7.6,53.1c0.1,0.2,0.2,0.5,0.2,0.7
		C460.9,674.1,460.1,674.9,459.2,674.9z M336,671.5h121.2l-7.2-50.2H343.2L336,671.5z"/>
</g>
<g>
	<line class="st0" x1="367.2" y1="601.7" x2="426" y2="601.7"/>
	<path class="st1" d="M426,603.4h-58.8c-0.9,0-1.7-0.8-1.7-1.7c0-0.9,0.8-1.7,1.7-1.7H426c0.9,0,1.7,0.8,1.7,1.7
		C427.7,602.6,426.9,603.4,426,603.4z"/>
</g>
<g>
	<line class="st0" x1="396.6" y1="595.5" x2="396.6" y2="607.9"/>
	<path class="st1" d="M396.6,609.6c-0.9,0-1.7-0.8-1.7-1.7v-12.4c0-0.9,0.8-1.7,1.7-1.7c0.9,0,1.7,0.8,1.7,1.7v12.4
		C398.3,608.8,397.5,609.6,396.6,609.6z"/>
</g>
<g>
	<path class="st0" d="M498.6,692.4c0-0.3,0-0.5,0-0.8c0-10.2-8.3-18.4-18.4-18.4H313c-10.2,0-18.4,8.3-18.4,18.4c0,0.3,0,0.5,0,0.8
		H498.6z"/>
	<path class="st1" d="M498.6,694.1H294.6c-0.9,0-1.7-0.7-1.7-1.6c0-0.4,0-0.6,0-0.9c0-11.1,9-20.1,20.1-20.1h167.3
		c11.1,0,20.1,9,20.1,20.1c0,0.2,0,0.4,0,0.6C500.3,693.1,499.5,694.1,498.6,694.1z M296.2,690.7h200.7c-0.6-9-7.9-15.8-16.7-15.8
		H313C304,674.9,296.7,681.9,296.2,690.7z"/>
</g>
<g>
	<g>
		<rect x="253.4" y="184.2" class="st0" width="286.4" height="384.3"/>
		<path d="M539.8,570.2H253.4c-0.9,0-1.7-0.8-1.7-1.7V184.2c0-0.9,0.8-1.7,1.7-1.7h286.4c0.9,0,1.7,0.8,1.7,1.7v384.3
			C541.5,569.4,540.7,570.2,539.8,570.2z M255.1,566.8h283V185.9h-283V566.8z"/>
	</g>
	<g>
		<path class="st0" d="M529.8,159.6H263.4c-5.5,0-10,4.5-10,10v14.7h286.4v-14.7C539.8,164.1,535.3,159.6,529.8,159.6z"/>
		<path d="M539.8,185.9H253.4c-0.9,0-1.7-0.8-1.7-1.7v-14.7c0-6.4,5.2-11.7,11.7-11.7h266.5c6.4,0,11.7,5.2,11.7,11.7v14.7
			C541.5,185.2,540.7,185.9,539.8,185.9z M255.1,182.5h283v-13c0-4.6-3.7-8.3-8.3-8.3H263.4c-4.6,0-8.3,3.7-8.3,8.3V182.5z"/>
	</g>
</g>
<g>
	<rect x="270" y="204.3" class="st5" width="228" height="12.5"/>
</g>
<g>
	<rect x="270" y="227.8" class="st5" width="207.3" height="12.5"/>
</g>
<g>
	<rect x="270" y="251.2" class="st6" width="254.5" height="12.5"/>
</g>
<g>
	<rect x="270" y="274.7" class="st6" width="37.7" height="12.5"/>
</g>
<g>
	<rect x="329.5" y="274.7" class="st6" width="103.1" height="12.5"/>
</g>
<g>
	<rect x="270" y="298.1" class="st6" width="240.8" height="12.5"/>
</g>
<g>
	<rect x="270" y="321.6" class="st7" width="254.5" height="12.5"/>
</g>
<g>
	<rect x="270" y="438.4" class="st7" width="70.1" height="12.5"/>
</g>
<g>
	<rect x="270" y="345" class="st8" width="205.5" height="12.5"/>
</g>
<g>
	<rect x="270" y="368.5" class="st8" width="254.2" height="12.5"/>
</g>
<g>
	<rect x="270" y="391.9" class="st8" width="197.5" height="12.5"/>
</g>
<g>
	<rect x="270" y="415.4" class="st8" width="254.2" height="12.5"/>
</g>
<g>
	<polygon class="st0" points="430,90.6 469,113.1 430,135.6 	"/>
	<path d="M430,137.3c-0.3,0-0.6-0.1-0.8-0.2c-0.5-0.3-0.9-0.9-0.9-1.5v-45c0-0.6,0.3-1.2,0.9-1.5c0.5-0.3,1.2-0.3,1.7,0l39,22.5
		c0.5,0.3,0.8,0.9,0.8,1.5c0,0.6-0.3,1.2-0.8,1.5l-39,22.5C430.6,137.2,430.3,137.3,430,137.3z M431.7,93.5v39.1l33.9-19.5
		L431.7,93.5z"/>
</g>
<g>
	<polygon class="st0" points="485.2,90.6 524.2,113.1 485.2,135.6 	"/>
	<path d="M485.2,137.3c-0.3,0-0.6-0.1-0.9-0.2c-0.5-0.3-0.8-0.9-0.8-1.5v-45c0-0.6,0.3-1.2,0.8-1.5c0.5-0.3,1.2-0.3,1.7,0l39,22.5
		c0.5,0.3,0.8,0.9,0.8,1.5c0,0.6-0.3,1.2-0.8,1.5l-39,22.5C485.8,137.2,485.5,137.3,485.2,137.3z M486.9,93.5v39.1l33.9-19.5
		L486.9,93.5z"/>
</g>
<g>
	<rect x="81.8" y="119.5" class="st0" width="48.7" height="48.7"/>
	<path d="M130.5,169.9H81.8c-0.9,0-1.7-0.8-1.7-1.7v-48.7c0-0.9,0.8-1.7,1.7-1.7h48.7c0.9,0,1.7,0.8,1.7,1.7v48.7
		C132.2,169.2,131.4,169.9,130.5,169.9z M83.4,166.5h45.3v-45.3H83.4V166.5z"/>
</g>
<g>
	<rect x="150.8" y="119.5" class="st0" width="48.7" height="48.7"/>
	<path d="M199.6,169.9h-48.7c-0.9,0-1.7-0.8-1.7-1.7v-48.7c0-0.9,0.8-1.7,1.7-1.7h48.7c0.9,0,1.7,0.8,1.7,1.7v48.7
		C201.3,169.2,200.5,169.9,199.6,169.9z M152.5,166.5h45.3v-45.3h-45.3V166.5z"/>
</g>
<g>
	<g>
		<path d="M459.1,727h-11.9c-0.9,0-1.7-0.8-1.7-1.7c0-0.9,0.8-1.7,1.7-1.7h11.9c0.9,0,1.7,0.8,1.7,1.7
			C460.8,726.2,460.1,727,459.1,727z"/>
	</g>
	<g>
		<path d="M426.5,727h-24.2c-0.9,0-1.7-0.8-1.7-1.7c0-0.9,0.8-1.7,1.7-1.7h24.2c0.9,0,1.7,0.8,1.7,1.7
			C428.2,726.2,427.4,727,426.5,727z M381.5,727h-24.2c-0.9,0-1.7-0.8-1.7-1.7c0-0.9,0.8-1.7,1.7-1.7h24.2c0.9,0,1.7,0.8,1.7,1.7
			C383.2,726.2,382.5,727,381.5,727z M336.5,727h-24.2c-0.9,0-1.7-0.8-1.7-1.7c0-0.9,0.8-1.7,1.7-1.7h24.2c0.9,0,1.7,0.8,1.7,1.7
			C338.2,726.2,337.5,727,336.5,727z M291.6,727h-24.2c-0.9,0-1.7-0.8-1.7-1.7c0-0.9,0.8-1.7,1.7-1.7h24.2c0.9,0,1.7,0.8,1.7,1.7
			C293.3,726.2,292.5,727,291.6,727z"/>
	</g>
	<g>
		<path d="M246.6,727h-11.9c-0.9,0-1.7-0.8-1.7-1.7v-11.9c0-0.9,0.8-1.7,1.7-1.7c0.9,0,1.7,0.8,1.7,1.7v10.2h10.2
			c0.9,0,1.7,0.8,1.7,1.7C248.3,726.2,247.5,727,246.6,727z"/>
	</g>
	<g>
		<path d="M234.7,706c-0.9,0-1.7-0.8-1.7-1.7v-11.9c0-0.9,0.8-1.7,1.7-1.7c0.9,0,1.7,0.8,1.7,1.7v11.9
			C236.4,705.2,235.6,706,234.7,706z"/>
	</g>
</g>
<g>
	<g>
		<path d="M569.4,344.3c-0.9,0-1.7-0.8-1.7-1.7v-11.9c0-0.9,0.8-1.7,1.7-1.7c0.9,0,1.7,0.8,1.7,1.7v11.9
			C571.1,343.5,570.3,344.3,569.4,344.3z"/>
	</g>
	<g>
		<path d="M569.4,315c-0.9,0-1.7-0.8-1.7-1.7V293c0-0.9,0.8-1.7,1.7-1.7c0.9,0,1.7,0.8,1.7,1.7v20.3
			C571.1,314.2,570.3,315,569.4,315z"/>
	</g>
	<g>
		<path d="M569.4,277.3c-0.9,0-1.7-0.8-1.7-1.7v-11.9c0-0.9,0.8-1.7,1.7-1.7h11.9c0.9,0,1.7,0.8,1.7,1.7c0,0.9-0.8,1.7-1.7,1.7
			h-10.2v10.2C571.1,276.5,570.3,277.3,569.4,277.3z"/>
	</g>
	<g>
		<path d="M619.2,265.4h-20.4c-0.9,0-1.7-0.8-1.7-1.7c0-0.9,0.8-1.7,1.7-1.7h20.4c0.9,0,1.7,0.8,1.7,1.7
			C620.9,264.6,620.2,265.4,619.2,265.4z"/>
	</g>
	<g>
		<path d="M648.6,265.4h-11.9c-0.9,0-1.7-0.8-1.7-1.7c0-0.9,0.8-1.7,1.7-1.7h10.2v-10.2c0-0.9,0.8-1.7,1.7-1.7
			c0.9,0,1.7,0.8,1.7,1.7v11.9C650.3,264.6,649.6,265.4,648.6,265.4z"/>
	</g>
	<g>
		<path d="M648.6,241.4c-0.9,0-1.7-0.8-1.7-1.7v-11.9c0-0.9,0.8-1.7,1.7-1.7c0.9,0,1.7,0.8,1.7,1.7v11.9
			C650.3,240.6,649.6,241.4,648.6,241.4z"/>
	</g>
</g>
<g>
	<g>
		<path d="M188.5,367.8h-11.9c-0.9,0-1.7-0.8-1.7-1.7c0-0.9,0.8-1.7,1.7-1.7h11.9c0.9,0,1.7,0.8,1.7,1.7
			C190.2,367,189.4,367.8,188.5,367.8z"/>
	</g>
	<g>
		<path d="M159.9,367.8h-19.4c-0.9,0-1.7-0.8-1.7-1.7c0-0.9,0.8-1.7,1.7-1.7h19.4c0.9,0,1.7,0.8,1.7,1.7
			C161.6,367,160.9,367.8,159.9,367.8z M123.8,367.8h-19.4c-0.9,0-1.7-0.8-1.7-1.7c0-0.9,0.8-1.7,1.7-1.7h19.4
			c0.9,0,1.7,0.8,1.7,1.7C125.5,367,124.8,367.8,123.8,367.8z"/>
	</g>
	<g>
		<path d="M87.7,367.8H75.8c-0.9,0-1.7-0.8-1.7-1.7v-11.9c0-0.9,0.8-1.7,1.7-1.7c0.9,0,1.7,0.8,1.7,1.7v10.2h10.2
			c0.9,0,1.7,0.8,1.7,1.7C89.4,367,88.6,367.8,87.7,367.8z"/>
	</g>
	<g>
		<path d="M75.8,324.2c-0.9,0-1.7-0.8-1.7-1.7v-11.9c0-0.9,0.8-1.7,1.7-1.7c0.9,0,1.7,0.8,1.7,1.7v11.9
			C77.5,323.4,76.8,324.2,75.8,324.2z"/>
	</g>
</g>
<g>
	<polygon class="st4" points="415.7,464.8 415.8,509.7 377.4,509.7 377.4,464.9 357.7,484.6 357.7,516.8 374.9,534.1 374.9,568.4 
		418.3,568.4 418.3,534.1 435.5,516.8 435.5,484.6 	"/>
	<path class="st1" d="M418.3,570.1h-43.3c-0.9,0-1.7-0.8-1.7-1.7l0-33.6L356.5,518c-0.3-0.3-0.5-0.8-0.5-1.2v-32.3
		c0-0.5,0.2-0.9,0.5-1.2l19.7-19.7c0.5-0.5,1.2-0.6,1.9-0.4c0.6,0.3,1,0.9,1,1.6V508l35,0l0-43.2c0-0.7,0.4-1.3,1-1.6
		c0.6-0.3,1.4-0.1,1.9,0.4l19.8,19.8c0.3,0.3,0.5,0.8,0.5,1.2l0,32.3c0,0.5-0.2,0.9-0.5,1.2L420,534.8l0,33.6
		C420,569.3,419.2,570.1,418.3,570.1z M376.6,566.7h39.9l0-32.6c0-0.4,0.2-0.9,0.5-1.2l16.7-16.7l0-30.8l-16.4-16.4l0,40.8
		c0,0.5-0.2,0.9-0.5,1.2c-0.3,0.3-0.8,0.5-1.2,0.5l0,0l-38.4,0c-0.9,0-1.7-0.8-1.7-1.7V469l-16.3,16.3v30.8l16.7,16.7
		c0.3,0.3,0.5,0.8,0.5,1.2L376.6,566.7z"/>
</g>
<g>
	<path d="M406.7,570.1c-0.9,0-1.7-0.8-1.7-1.7v-33.8c0-0.9,0.8-1.7,1.7-1.7c0.9,0,1.7,0.8,1.7,1.7v33.8
		C408.4,569.3,407.7,570.1,406.7,570.1z"/>
</g>
<g>
	<path class="st0" d="M739.8,123.3H587.3c-7.5,0-13.6,6.1-13.6,13.6v48l-49.5,42.8h63h5h147.6c7.5,0,13.6-6.1,13.6-13.6v-77.3
		C753.4,129.4,747.3,123.3,739.8,123.3z"/>
	<path d="M739.8,229.5H524.2c-0.7,0-1.3-0.4-1.6-1.1c-0.3-0.7-0.1-1.4,0.5-1.9l48.9-42.3v-47.3c0-8.4,6.9-15.3,15.3-15.3h152.6
		c8.4,0,15.3,6.9,15.3,15.3v77.3C755.1,222.6,748.3,229.5,739.8,229.5z M528.8,226.1h211.1c6.6,0,11.9-5.3,11.9-11.9v-77.3
		c0-6.6-5.3-11.9-11.9-11.9H587.3c-6.6,0-11.9,5.3-11.9,11.9v48c0,0.5-0.2,1-0.6,1.3L528.8,226.1z"/>
</g>
<g>
	<path class="st0" d="M200.4,283.5v-64.9c0-7.5-6.1-13.6-13.6-13.6H54.3c-7.5,0-13.6,6.1-13.6,13.6v77.6c0,7.5,6.1,13.6,13.6,13.6
		h126.3h6.2h44L200.4,283.5z"/>
	<path d="M230.8,311.6H54.3c-8.4,0-15.3-6.9-15.3-15.3v-77.6c0-8.4,6.9-15.3,15.3-15.3h132.5c8.4,0,15.3,6.9,15.3,15.3v64.1
		l29.8,25.8c0.5,0.5,0.7,1.2,0.5,1.9C232.2,311.1,231.5,311.6,230.8,311.6z M54.3,206.8c-6.6,0-11.9,5.3-11.9,11.9v77.6
		c0,6.6,5.3,11.9,11.9,11.9h172l-27-23.4c-0.4-0.3-0.6-0.8-0.6-1.3v-64.9c0-6.6-5.3-11.9-11.9-11.9H54.3z"/>
</g>
<g>
	<path class="st0" d="M298.8,594.4h-49.2h-7.5H86.9c-7.5,0-13.6,6.1-13.6,13.6v69.7c0,7.5,6.1,13.6,13.6,13.6h162.7
		c7.5,0,13.6-6.1,13.6-13.6v-52.5L298.8,594.4z"/>
	<path d="M249.5,693H86.9c-8.4,0-15.3-6.9-15.3-15.3V608c0-8.4,6.9-15.3,15.3-15.3h211.9c0.7,0,1.3,0.4,1.6,1.1
		c0.2,0.7,0.1,1.4-0.5,1.9l-35,30.3v51.7C264.8,686.2,258,693,249.5,693z M86.9,596.1c-6.6,0-11.9,5.3-11.9,11.9v69.7
		c0,6.6,5.3,11.9,11.9,11.9h162.7c6.6,0,11.9-5.3,11.9-11.9v-52.5c0-0.5,0.2-1,0.6-1.3l32.2-27.9H86.9z"/>
</g>
<g>
	<path class="st0" d="M739.8,298.9h-86H649h-48.3l34.7,30.1v74.4c0,7.5,6.1,13.6,13.6,13.6h90.8c7.5,0,13.6-6.1,13.6-13.6v-90.8
		C753.4,305,747.3,298.9,739.8,298.9z"/>
	<path d="M739.8,418.6H649c-8.4,0-15.3-6.9-15.3-15.3v-73.6l-34.1-29.6c-0.5-0.5-0.7-1.2-0.5-1.9c0.2-0.7,0.9-1.1,1.6-1.1h139.1
		c8.4,0,15.3,6.9,15.3,15.3v90.8C755.1,411.7,748.3,418.6,739.8,418.6z M605.2,300.6l31.3,27.1c0.4,0.3,0.6,0.8,0.6,1.3v74.4
		c0,6.6,5.3,11.9,11.9,11.9h90.8c6.6,0,11.9-5.3,11.9-11.9v-90.8c0-6.6-5.3-11.9-11.9-11.9H605.2z"/>
</g>
<g>
	<g>
		<g>
			<polygon points="621.3,196.5 621.3,175.9 599,175.9 599,196.5 595.4,196.5 595.4,154.6 599,154.6 599,172.5 621.3,172.5 
				621.3,154.6 624.9,154.6 624.9,196.5 			"/>
		</g>
	</g>
	<g>
		<g>
			<polygon points="641.2,196.5 641.2,158.1 631.7,158.1 631.7,154.6 654.4,154.6 654.4,158.1 644.9,158.1 644.9,196.5 			"/>
		</g>
	</g>
	<g>
		<g>
			<polygon points="703,196.5 698.7,165.2 683.3,196.5 682.6,196.5 667,165 662.7,196.5 659.3,196.5 665.3,154.6 665.5,154.6 
				683,189.9 700.3,154.6 700.5,154.6 706.5,196.5 			"/>
		</g>
	</g>
	<g>
		<g>
			<polygon points="715.6,196.5 715.6,154.6 719.2,154.6 719.2,193 735.5,193 735.5,196.5 			"/>
		</g>
	</g>
</g>
<g>
	<g>
		<g>
			<path d="M670.7,386.4c-2.1,0-4.3-0.4-6.4-1.3c-1.9-0.8-4-2.1-6.4-3.9l1.9-2.9c2.7,1.8,4.8,3.1,6.7,3.9c1.4,0.6,2.8,0.9,4.2,0.9
				c1.8,0,3.5-0.6,5-1.7c1.5-1.1,2.5-2.6,3.1-4.4c0.6-1.7,0.8-4.9,0.8-9.7v-36.9h3.6v37.1c0,5.7-0.4,9.7-1.3,11.8
				c-0.8,2.1-2.2,3.7-4.1,5C675.9,385.8,673.5,386.4,670.7,386.4z"/>
		</g>
	</g>
	<g>
		<g>
			<path d="M709.3,386.4c-3.2,0-6.2-0.9-8.8-2.6c-2.4-1.6-4.8-4.3-6.9-8l3.1-1.8c3.4,5.9,7.5,8.9,12.1,8.9c2.1,0,4-0.5,5.8-1.4
				c1.8-1,3.2-2.3,4.2-3.9c1-1.6,1.4-3.4,1.4-5.2c0-2.1-0.7-4.2-2.1-6.1c-1.8-2.6-5.1-5.6-9.9-9.3c-4.6-3.5-7.5-6-8.6-7.5
				c-1.9-2.5-2.8-5.2-2.8-8c0-2.3,0.5-4.3,1.6-6.2c1.1-1.8,2.6-3.3,4.6-4.4c2-1.1,4.2-1.6,6.5-1.6c2.5,0,4.8,0.6,7,1.8
				c2,1.1,4.2,3.2,6.4,6.2l-3,2.3c-2-2.5-3.6-4.1-5.1-5c-1.7-1-3.5-1.5-5.4-1.5c-2.5,0-4.7,0.8-6.3,2.4c-1.6,1.6-2.5,3.5-2.5,5.8
				c0,1.4,0.3,2.7,0.9,4c0.6,1.3,1.6,2.6,3,4.1c0.8,0.8,3.1,2.6,7.4,5.7c4.8,3.5,8.1,6.7,9.8,9.4c1.7,2.6,2.6,5.3,2.6,7.9
				c0,3.8-1.4,7.1-4.3,9.9C717,385,713.4,386.4,709.3,386.4z"/>
		</g>
	</g>
</g>
<g>
	<g>
		<g>
			<path d="M86,279.5c-7.6,0-13.6-2.6-18-7.6c-3.7-4.3-5.5-9.5-5.5-15.5c0-6.3,2.3-11.7,6.7-16.1c4.4-4.3,10.1-6.5,16.8-6.5
				c4.1,0,7.8,0.8,11,2.4c3.2,1.5,5.8,3.7,7.8,6.5l-2.9,2.3c-1.9-2.4-4.2-4.3-6.8-5.5c-2.7-1.3-5.8-2-9-2c-3.6,0-6.9,0.9-10,2.6
				c-3,1.7-5.4,4-7.1,6.9c-1.7,2.9-2.5,6.2-2.5,9.8c0,5.5,1.9,10.1,5.6,13.7c3.7,3.7,8.5,5.5,14.2,5.5c6.2,0,11.4-2.4,15.6-7.1
				l3,2.2c-2.1,2.6-4.8,4.7-7.9,6.1C93.7,278.8,90,279.5,86,279.5z"/>
		</g>
	</g>
	<g>
		<g>
			<polygon points="125.7,271.4 125.7,258.4 112.6,258.4 112.6,255 125.7,255 125.7,241.9 129.1,241.9 129.1,255 142.3,255 
				142.3,258.4 129.1,258.4 129.1,271.4 			"/>
		</g>
	</g>
	<g>
		<g>
			<polygon points="163,271.4 163,258.4 149.8,258.4 149.8,255 163,255 163,241.9 166.4,241.9 166.4,255 179.5,255 179.5,258.4 
				166.4,258.4 166.4,271.4 			"/>
		</g>
	</g>
</g>
<g>
	<g>
		<path class="st0" d="M725.4,533.5c-0.7-1.5-1.6-2.9-2.5-4.2l5.1-11.4c-5-5.5-11.3-9.6-18.1-12l-8.5,9.1c-3.2-0.7-6.4-0.9-9.7-0.6
			l-7.3-10.1c-3.5,0.8-7,2-10.3,3.7c-3.4,1.7-6.4,3.7-9.2,6l3.7,12c-2.2,2.5-4,5.2-5.4,8.1l-12.4,1.3c-2.2,6.9-2.7,14.4-1.4,21.7
			l12.2,2.8c0.5,1.5,1.1,3,1.9,4.5c0.7,1.5,1.6,2.9,2.5,4.2l-5.1,11.4c5.1,5.5,11.3,9.6,18.1,12l8.5-9.1c3.2,0.7,6.5,0.9,9.7,0.6
			l7.3,10.1c3.5-0.8,7-2,10.3-3.7c3.4-1.7,6.4-3.7,9.2-6l-3.7-12c2.2-2.5,4-5.2,5.4-8.1l12.4-1.3c2.2-6.9,2.7-14.4,1.4-21.7
			l-12.2-2.8C726.8,536.5,726.2,535,725.4,533.5z M704.3,568.8c-11,5.5-24.4,1-29.9-10.1c-5.5-11-1-24.4,10.1-29.9
			c11-5.5,24.4-1,29.9,10.1C719.8,550,715.4,563.4,704.3,568.8z"/>
		<path d="M704.4,595.2c-0.5,0-1.1-0.3-1.4-0.7l-6.8-9.4c-2.8,0.1-5.6,0-8.3-0.5l-7.9,8.5c-0.5,0.5-1.2,0.7-1.8,0.4
			c-7.2-2.6-13.7-6.9-18.8-12.5c-0.5-0.5-0.6-1.2-0.3-1.8l4.7-10.6c-0.8-1.2-1.5-2.4-2.1-3.6c-0.6-1.2-1.1-2.5-1.6-3.8l-11.3-2.6
			c-0.7-0.2-1.2-0.7-1.3-1.4c-1.3-7.5-0.8-15.3,1.4-22.5c0.2-0.6,0.8-1.1,1.4-1.2l11.5-1.2c1.3-2.5,2.8-4.8,4.6-6.9l-3.4-11.1
			c-0.2-0.7,0-1.4,0.5-1.8c2.9-2.5,6.1-4.5,9.5-6.2c3.4-1.7,7-3,10.7-3.8c0.7-0.1,1.4,0.1,1.8,0.7l6.8,9.4c2.8-0.1,5.6,0,8.3,0.5
			l7.9-8.5c0.5-0.5,1.2-0.7,1.8-0.4c7.2,2.6,13.7,6.9,18.8,12.5c0.5,0.5,0.6,1.2,0.3,1.8l-4.7,10.6c0.8,1.2,1.5,2.4,2.1,3.6
			c0.6,1.2,1.2,2.5,1.6,3.8l11.3,2.6c0.7,0.2,1.2,0.7,1.3,1.4c1.3,7.5,0.8,15.3-1.4,22.5c-0.2,0.6-0.8,1.1-1.4,1.2l-11.5,1.2
			c-1.3,2.5-2.8,4.8-4.6,6.9l3.4,11.1c0.2,0.6,0,1.4-0.5,1.8c-2.9,2.4-6.1,4.5-9.5,6.2c-3.4,1.7-7,2.9-10.7,3.8
			C704.7,595.2,704.6,595.2,704.4,595.2z M697.1,581.7c0.5,0,1.1,0.3,1.4,0.7l6.6,9.2c3.1-0.8,6.1-1.9,8.9-3.3
			c2.8-1.4,5.5-3.1,8-5.1l-3.3-10.9c-0.2-0.6,0-1.2,0.4-1.6c2.1-2.3,3.8-4.9,5.1-7.7c0.3-0.5,0.8-0.9,1.4-1l11.3-1.2
			c1.7-6.1,2.1-12.5,1.2-18.7l-11.1-2.6c-0.6-0.1-1-0.6-1.2-1.1c-0.5-1.5-1.1-2.9-1.8-4.3c-0.7-1.3-1.4-2.7-2.4-4
			c-0.3-0.5-0.4-1.1-0.1-1.7l4.7-10.4c-4.4-4.5-9.8-8.1-15.6-10.4l-7.8,8.3c-0.4,0.4-1,0.6-1.6,0.5c-3-0.6-6.1-0.8-9.3-0.6
			c-0.6,0.1-1.2-0.2-1.5-0.7l-6.7-9.2c-3.1,0.8-6,1.9-8.9,3.3c-2.8,1.4-5.5,3.1-8,5.1l3.3,10.9c0.2,0.6,0,1.2-0.4,1.6
			c-2.1,2.3-3.8,4.9-5.1,7.7c-0.3,0.5-0.8,0.9-1.4,1l-11.3,1.2c-1.7,6.1-2.2,12.5-1.2,18.7l11.1,2.6c0.6,0.1,1,0.6,1.2,1.1
			c0.5,1.5,1.1,2.9,1.8,4.3c0.7,1.4,1.5,2.7,2.4,4c0.3,0.5,0.4,1.1,0.1,1.7l-4.7,10.4c4.4,4.5,9.8,8.1,15.6,10.4l7.8-8.3
			c0.4-0.4,1-0.6,1.6-0.5c3,0.6,6.1,0.8,9.3,0.6C697,581.7,697.1,581.7,697.1,581.7z M694.4,572.9c-9.2,0-17.4-5.1-21.5-13.3
			c-2.9-5.7-3.3-12.2-1.3-18.3c2-6.1,6.3-11,12.1-13.8c3.4-1.7,6.9-2.5,10.6-2.5c9.2,0,17.4,5.1,21.5,13.3
			c5.9,11.9,1,26.3-10.8,32.2C701.7,572,698.1,572.9,694.4,572.9z M694.4,528.3c-3.2,0-6.3,0.7-9.1,2.2c-4.9,2.4-8.6,6.7-10.4,11.9
			c-1.8,5.2-1.4,10.8,1.1,15.7c3.5,7.1,10.6,11.4,18.5,11.4c3.2,0,6.3-0.7,9.1-2.2c10.2-5.1,14.3-17.4,9.3-27.6
			C709.4,532.7,702.3,528.3,694.4,528.3z"/>
	</g>
	<g>
		<path class="st0" d="M684.5,528.9c-11,5.5-15.5,18.9-10.1,29.9c5.5,11,18.8,15.5,29.9,10.1c11-5.5,15.5-18.9,10.1-29.9
			C708.9,527.9,695.5,523.4,684.5,528.9z"/>
		<path d="M694.4,572.9L694.4,572.9c-9.2,0-17.4-5.1-21.5-13.3c-2.9-5.7-3.3-12.2-1.3-18.3c2-6.1,6.3-11,12.1-13.8
			c3.4-1.7,6.9-2.5,10.6-2.5c9.2,0,17.4,5.1,21.5,13.3c5.9,11.9,1,26.3-10.8,32.2C701.7,572,698.1,572.9,694.4,572.9z M694.4,528.3
			c-3.2,0-6.3,0.7-9.1,2.2c-4.9,2.4-8.6,6.7-10.4,11.9c-1.8,5.2-1.4,10.8,1.1,15.7c3.5,7.1,10.6,11.4,18.5,11.4
			c3.2,0,6.3-0.7,9.1-2.2c10.2-5.1,14.3-17.4,9.3-27.6C709.4,532.7,702.3,528.3,694.4,528.3z"/>
	</g>
</g>
<g>
	<g>
		<path d="M73.1,499.3c-0.4,0-0.9-0.2-1.2-0.5l-18.2-18.2c-0.3-0.3-0.5-0.7-0.5-1.2c0-0.5,0.2-0.9,0.5-1.2L71.9,460
			c0.7-0.7,1.7-0.7,2.4,0c0.7,0.7,0.7,1.7,0,2.4l-17,17l17,17c0.7,0.7,0.7,1.7,0,2.4C74,499.1,73.5,499.3,73.1,499.3z"/>
	</g>
	<g>
		<path d="M126.3,499.3c-0.4,0-0.9-0.2-1.2-0.5c-0.7-0.7-0.7-1.7,0-2.4l17-17l-17-17c-0.7-0.7-0.7-1.7,0-2.4c0.7-0.7,1.7-0.7,2.4,0
			l18.2,18.2c0.7,0.7,0.7,1.7,0,2.4l-18.2,18.2C127.2,499.1,126.8,499.3,126.3,499.3z"/>
	</g>
	<g>
		<path d="M110.2,499.3c-0.6,0-1.1-0.3-1.4-0.8l-21-33.8c-0.5-0.8-0.3-1.8,0.5-2.3c0.8-0.5,1.8-0.3,2.3,0.5l21,33.8
			c0.5,0.8,0.3,1.8-0.5,2.3C110.8,499.2,110.5,499.3,110.2,499.3z"/>
	</g>
</g>
<g>
	<path class="st0" d="M389.6,59.9H242.7c-7.5,0-13.6,6.1-13.6,13.6v97.2c0,7.5,6.1,13.6,13.6,13.6h47.2l26.2,29.6l26.2-29.6h47.2
		c7.5,0,13.6-6.1,13.6-13.6V73.5C403.2,66,397.1,59.9,389.6,59.9z"/>
	<path d="M316.1,215.5c-0.5,0-0.9-0.2-1.3-0.6l-25.7-29h-46.5c-8.4,0-15.3-6.9-15.3-15.3V73.5c0-8.4,6.9-15.3,15.3-15.3h146.9
		c8.4,0,15.3,6.9,15.3,15.3v97.2c0,8.4-6.9,15.3-15.3,15.3h-46.5l-25.7,29C317.1,215.3,316.6,215.5,316.1,215.5z M242.7,61.6
		c-6.6,0-11.9,5.3-11.9,11.9v97.2c0,6.6,5.3,11.9,11.9,11.9h47.2c0.5,0,0.9,0.2,1.3,0.6l25,28.1l25-28.1c0.3-0.4,0.8-0.6,1.3-0.6
		h47.2c6.6,0,11.9-5.3,11.9-11.9V73.5c0-6.6-5.3-11.9-11.9-11.9H242.7z"/>
</g>
<g>
	<g>
		<g>
			<path d="M249.9,148.2V93.9h10.2c6.3,0,10.6,0.3,12.8,0.8c3,0.7,5.5,2.3,7.4,4.5c1.9,2.3,2.8,5.2,2.8,8.7c0,3.5-0.9,6.4-2.8,8.7
				c-1.8,2.3-4.4,3.8-7.7,4.6c-2.5,0.6-7.2,0.9-14.1,0.9h-5v26.2H249.9z M253.5,118.5l10.6,0.1c4,0,6.9-0.4,8.9-1.1
				c2-0.8,3.6-2.1,4.7-3.8c1.1-1.7,1.7-3.7,1.7-5.8c0-2.1-0.6-4-1.7-5.7c-1.1-1.7-2.7-3-4.5-3.7c-1.8-0.7-4.6-1.1-8.6-1.1h-11V118.5
				z"/>
		</g>
	</g>
	<g>
		<g>
			<polygon points="330.7,148.2 330.7,121 300,121 300,148.2 296.4,148.2 296.4,93.9 300,93.9 300,117.5 330.7,117.5 330.7,93.9 
				334.3,93.9 334.3,148.2 			"/>
		</g>
	</g>
	<g>
		<g>
			<path d="M350,148.2V93.9h10.2c6.3,0,10.6,0.3,12.8,0.8c3,0.7,5.5,2.3,7.4,4.5c1.9,2.3,2.8,5.2,2.8,8.7c0,3.5-0.9,6.4-2.8,8.7
				c-1.8,2.3-4.4,3.8-7.7,4.6c-2.5,0.6-7.2,0.9-14.1,0.9h-5v26.2H350z M353.6,118.5l10.6,0.1c4,0,6.9-0.4,8.9-1.1
				c2-0.8,3.6-2.1,4.7-3.8c1.1-1.7,1.7-3.7,1.7-5.8c0-2.1-0.6-4-1.7-5.7c-1.1-1.7-2.7-3-4.5-3.7c-1.8-0.7-4.6-1.1-8.6-1.1h-11V118.5
				z"/>
		</g>
	</g>
</g>
<g>
	<path d="M663.3,455.2h-13.8c-0.9,0-1.7-0.8-1.7-1.7c0-0.9,0.8-1.7,1.7-1.7h12.1v-8.3c0-0.9,0.8-1.7,1.7-1.7c0.9,0,1.7,0.8,1.7,1.7
		v10C665,454.5,664.2,455.2,663.3,455.2z M629.1,455.2h-23.8c-0.9,0-1.7-0.8-1.7-1.7c0-0.9,0.8-1.7,1.7-1.7h23.8
		c0.9,0,1.7,0.8,1.7,1.7C630.8,454.5,630,455.2,629.1,455.2z M663.3,424.9c-0.9,0-1.7-0.8-1.7-1.7v-6.3c0-0.9,0.8-1.7,1.7-1.7
		c0.9,0,1.7,0.8,1.7,1.7v6.3C665,424.1,664.2,424.9,663.3,424.9z"/>
</g>
<g>
	<rect x="453" y="485.4" class="st4" width="85.1" height="31.2"/>
</g>
<g>
	<rect x="255.1" y="485.4" class="st4" width="85.1" height="31.2"/>
</g>
<g>
	<path d="M169,160.7c-0.4,0-0.9-0.2-1.2-0.5c-0.7-0.7-0.7-1.7,0-2.4l14-14l-14-14c-0.7-0.7-0.7-1.7,0-2.4c0.7-0.7,1.7-0.7,2.4,0
		l15.2,15.2c0.3,0.3,0.5,0.8,0.5,1.2c0,0.5-0.2,0.9-0.5,1.2l-15.2,15.2C169.8,160.6,169.4,160.7,169,160.7z"/>
</g>
<g>
	<path d="M112.4,160.7c-0.4,0-0.9-0.2-1.2-0.5l-15.2-15.2c-0.3-0.3-0.5-0.8-0.5-1.2c0-0.5,0.2-0.9,0.5-1.2l15.2-15.2
		c0.7-0.7,1.7-0.7,2.4,0c0.7,0.7,0.7,1.7,0,2.4l-14,14l14,14c0.7,0.7,0.7,1.7,0,2.4C113.3,160.6,112.9,160.7,112.4,160.7z"/>
</g>
<text transform="matrix(1 0 0 1 81.75 661.4716)" class="st9 st10">mySQL</text>
</svg>
