<?xml version="1.0" encoding="utf-8"?>
<!-- Generator: Adobe Illustrator 22.1.0, SVG Export Plug-In . SVG Version: 6.00 Build 0)  -->
<svg version="1.1" id="Web_Design_2_" xmlns="http://www.w3.org/2000/svg" xmlns:xlink="http://www.w3.org/1999/xlink" x="0px"
	 y="0px" viewBox="0 0 1200 1200" style="enable-background:new 0 0 1200 1200;" xml:space="preserve">
<style type="text/css">
	.st0{fill:#09C6A2;}
	.st1{fill:#29D3B2;}
	.st2{fill:#FFDB79;}
	.st3{fill-rule:evenodd;clip-rule:evenodd;fill:#34465C;}
	.st4{fill-rule:evenodd;clip-rule:evenodd;fill:#34404F;}
	.st5{fill-rule:evenodd;clip-rule:evenodd;fill:#6E7F8F;}
	.st6{fill-rule:evenodd;clip-rule:evenodd;fill:#FFE8AE;}
	.st7{fill-rule:evenodd;clip-rule:evenodd;fill:#FEFEFE;}
	.st8{fill-rule:evenodd;clip-rule:evenodd;fill:#363F48;}
	.st9{fill-rule:evenodd;clip-rule:evenodd;fill:#F16858;}
	.st10{fill-rule:evenodd;clip-rule:evenodd;fill:#C02729;}
	.st11{fill-rule:evenodd;clip-rule:evenodd;fill:#D0D2D4;}
	.st12{fill-rule:evenodd;clip-rule:evenodd;fill:#7C7C7C;}
	.st13{fill-rule:evenodd;clip-rule:evenodd;fill:#FFFFFF;}
	.st14{fill-rule:evenodd;clip-rule:evenodd;fill:#353F49;}
	.st15{fill-rule:evenodd;clip-rule:evenodd;fill:#F77B55;}
	.st16{fill-rule:evenodd;clip-rule:evenodd;fill:#76D0DE;}
	.st17{fill-rule:evenodd;clip-rule:evenodd;fill:#FFDB79;}
	.st18{fill-rule:evenodd;clip-rule:evenodd;fill:#CCCCCC;}
	.st19{fill-rule:evenodd;clip-rule:evenodd;fill:#08C6A2;}
</style>
<g id="Background">
	<rect id="Background_1" class="st0" width="1200" height="1200"/>
	<circle id="Background_2" class="st1" cx="600" cy="600" r="399"/>
</g>
<g id="Web_Design_1_">
	<g>
		<polygon class="st2" points="408.5,187.3 558.1,187.3 561.7,187.3 561.7,190.9 561.7,291.7 681.8,291.7 685.4,291.7 685.4,295.3 
			685.4,346.2 678.2,346.2 678.2,298.9 558.1,298.9 554.5,298.9 554.5,295.3 554.5,194.5 408.5,194.5 		"/>
		<polygon class="st2" points="290.2,238.8 211.3,238.8 211.3,374.6 204.1,374.6 204.1,235.2 204.1,231.6 207.7,231.6 290.2,231.6 
					"/>
	</g>
	<g>
		<path class="st3" d="M330.5,411.1h597.1c12.1,0,22.1,9.9,22.1,22.1v407.9H308.3V433.2C308.3,421,318.3,411.1,330.5,411.1
			L330.5,411.1z"/>
		<path class="st4" d="M209,915.7h420h420c2.3,0,1.8-1.8-1-3.9l-90.2-69.3c-2.8-2.2-7-3.9-9.3-3.9H629H309.6c-2.3,0-6.5,1.8-9.3,3.9
			L210,911.8C207.2,913.9,206.7,915.7,209,915.7L209,915.7z"/>
		<path class="st3" d="M212.4,910.7c277.7,0,555.5,0,833.3,0c6.3,0,6.9,5.1,1.4,11.5l-11.3,12.8c-5.6,6.4-15.4,11.5-21.6,11.5
			c-256.8,0-513.4,0-770.1,0c-6.4,0-16.1-5.1-21.6-11.5L211,922.2C205.4,915.8,206,910.7,212.4,910.7L212.4,910.7z"/>
		<polygon class="st5" points="563.5,877.1 598.9,877.1 659.1,877.1 694.4,877.1 714.1,898.7 639.4,898.7 618.6,898.7 543.9,898.7 
					"/>
		<rect x="328.5" y="438.7" class="st6" width="601" height="380.5"/>
	</g>
	<g>
		<g>
			<path class="st7" d="M989.9,339.5c4.7-7.7,7.8-16.2,9.1-25l26.6-4.6l-7.2-41.3l-26.7,4.7c-2.1-3.9-4.6-7.6-7.5-11.1
				c-2.9-3.5-6.2-6.6-9.5-9.3l9.3-25.4l-39.3-14.5l-9.3,25.4c-8.9-0.3-17.8,1.2-26.2,4.5L892,222.3l-32.2,26.9l17.3,20.7
				c-4.7,7.7-7.8,16.2-9.1,25l-26.6,4.7l7.2,41.3l26.6-4.6c2.1,3.9,4.6,7.6,7.5,11c2.9,3.5,6.2,6.6,9.5,9.3l-9.3,25.4l39.4,14.4
				l9.3-25.4c8.9,0.3,17.8-1.2,26.2-4.5l17.3,20.8l32.2-26.9L989.9,339.5z"/>
			<path class="st8" d="M947,320.8c8.9-7.4,10.1-20.6,2.6-29.5c-7.4-8.9-20.6-10.1-29.6-2.7c-8.9,7.4-10.1,20.7-2.6,29.6
				C924.9,327,938.1,328.2,947,320.8L947,320.8z M960,336.4c17.5-14.6,19.8-40.6,5.2-58.1c-14.6-17.5-40.6-19.8-58.1-5.2
				c-17.4,14.6-19.8,40.7-5.2,58.1C916.5,348.7,942.5,351,960,336.4L960,336.4z"/>
		</g>
		<g>
			<path class="st7" d="M819.8,252.8c-2.5-5.8-6.2-10.9-10.6-15.1l7.8-17l-26.5-12.2l-7.8,17c-3-0.3-6.1-0.3-9.3-0.1
				c-3.1,0.3-6.2,0.9-9.1,1.8l-10.9-15.4l-23.8,16.8l10.9,15.4c-3.6,4.9-6.3,10.6-7.7,16.8l-18.7,1.7l2.7,29l18.7-1.8
				c2.6,5.8,6.2,10.9,10.7,15.1l-7.8,17.1l26.4,12.1l7.8-17c3,0.3,6.2,0.3,9.3,0.1c3.2-0.3,6.2-0.9,9.1-1.8l10.9,15.3l23.7-16.8
				l-10.9-15.4c3.7-4.9,6.3-10.6,7.7-16.7l18.7-1.8l-2.7-29L819.8,252.8z"/>
			<path class="st8" d="M792.2,269.9c-0.7-8-7.8-13.9-15.9-13.1c-8,0.7-13.9,7.8-13.1,15.8c0.7,8,7.8,13.9,15.8,13.2
				C787,285,792.9,278,792.2,269.9L792.2,269.9z M806.2,268.7c-1.5-15.8-15.4-27.3-31.2-25.9c-15.8,1.5-27.3,15.4-25.9,31.2
				c1.5,15.8,15.5,27.4,31.3,25.9C796.1,298.3,807.7,284.4,806.2,268.7L806.2,268.7z"/>
		</g>
	</g>
	<g>
		<path class="st7" d="M351.6,133.7c-29.1,0-53.5,18.7-60.4,44c-28.3,3-50.3,25.6-50.3,52.9c0,29.5,25.5,53.4,56.9,53.4l0,0h145.4
			l0,0c0.1,0,0.3,0,0.4,0c27.1,0,49.1-20.6,49.1-46.1c0-18.9-12.2-35.2-29.6-42.3c0-0.3,0-0.6,0-0.9c0-18-15.6-32.5-34.7-32.5
			c-7.4,0-14.4,2.2-20,6C398.6,147.9,376.9,133.7,351.6,133.7L351.6,133.7z"/>
		<path class="st7" d="M550.4,256.1c-15.2,0-27.9,9.7-31.5,22.9c-14.7,1.6-26.2,13.4-26.2,27.7c0,15.4,13.3,27.8,29.7,27.8l0,0h75.9
			l0,0c0.1,0,0.1,0,0.2,0c14.1,0,25.6-10.8,25.6-24c0-9.9-6.4-18.4-15.5-22c0-0.2,0-0.3,0-0.5c0-9.3-8-17-18.1-17
			c-3.9,0-7.5,1.1-10.5,3.1C574.9,263.4,563.5,256.1,550.4,256.1L550.4,256.1z"/>
	</g>
	<g>
		<rect x="873.6" y="595.8" class="st7" width="201.1" height="258.6"/>
		<path class="st9" d="M1076,595.8H974.2H872.4c-4.1,0-7.3-3.3-7.3-7.3v-10.8c0-4,3.2-7.3,7.3-7.3h73.5c-0.1-1-0.2-2-0.2-3
			c0-15.8,12.8-28.5,28.5-28.5c15.7,0,28.5,12.8,28.5,28.5c0,1-0.1,2-0.1,3h73.5c4,0,7.3,3.3,7.3,7.3v10.8
			C1083.3,592.5,1080,595.8,1076,595.8L1076,595.8z M974.2,556.3c-6.1,0-11,4.9-11,11c0,6,4.9,11,11,11c6,0,11-4.9,11-11
			C985.1,561.3,980.2,556.3,974.2,556.3L974.2,556.3z"/>
		<path class="st10" d="M1076,595.8H974.2H872.4c-4.1,0-7.3-3.3-7.3-7.3v-0.1h218.2v0.1C1083.3,592.5,1080,595.8,1076,595.8
			L1076,595.8z"/>
		<polygon class="st11" points="1041.8,854.5 1074.7,821.6 1041.8,822.1 		"/>
		<g>
			<rect x="903.2" y="632.5" class="st12" width="141.8" height="12"/>
			<rect x="903.2" y="678.9" class="st12" width="141.8" height="12"/>
			<rect x="903.2" y="725.5" class="st12" width="141.8" height="12"/>
			<rect x="903.2" y="772" class="st12" width="141.8" height="12"/>
		</g>
	</g>
	<g>
		<g>
			<path class="st13" d="M147.6,345.8h677.3c9.4,0,17,7.7,17,17.1v385.4c0,9.4-7.6,17.1-17,17.1H147.6c-9.4,0-17.1-7.7-17.1-17.1
				V362.9C130.5,353.5,138.2,345.8,147.6,345.8L147.6,345.8z"/>
			<g>
				<path class="st14" d="M145.5,345.8h681.5c8.3,0,15,6.8,15,15V407c0,0.7-0.5,1.2-1.2,1.2H130.5v-47.3
					C130.5,352.6,137.2,345.8,145.5,345.8L145.5,345.8z"/>
				<path class="st15" d="M165.6,390c7.2,0,13.1-6.2,13.1-13.7c0-7.6-5.8-13.7-13.1-13.7c-7.2,0-13.1,6.1-13.1,13.7
					C152.6,383.8,158.5,390,165.6,390L165.6,390z"/>
				<path class="st16" d="M202.2,390c7.2,0,13.1-6.2,13.1-13.7c0-7.6-5.9-13.7-13.1-13.7c-7.2,0-13.1,6.1-13.1,13.7
					C189.1,383.8,194.9,390,202.2,390L202.2,390z"/>
				<path class="st17" d="M238.7,390c7.2,0,13.1-6.2,13.1-13.7c0-7.6-5.9-13.7-13.1-13.7c-7.2,0-13.1,6.1-13.1,13.7
					C225.6,383.8,231.4,390,238.7,390L238.7,390z"/>
				<rect x="271.6" y="364.8" class="st13" width="550.2" height="25.9"/>
			</g>
		</g>
		<rect x="187.6" y="432.5" class="st18" width="152.7" height="20.2"/>
		<rect x="403.6" y="432.5" class="st18" width="152.7" height="20.2"/>
		<rect x="620.2" y="432.5" class="st18" width="152.7" height="20.2"/>
		<rect x="183.5" y="485.8" class="st17" width="367.3" height="167.2"/>
		<rect x="581" y="485.8" class="st15" width="112.5" height="107"/>
		<rect x="180.7" y="672.5" class="st18" width="280.6" height="11.5"/>
		<rect x="234.3" y="694.1" class="st18" width="280.6" height="11.6"/>
		<rect x="189" y="717.2" class="st18" width="280.6" height="11.6"/>
		<polygon class="st13" points="660.1,539.3 637.3,553.1 614.5,566.9 614.5,539.3 614.5,511.7 637.3,525.5 		"/>
		<rect x="581" y="619" class="st19" width="225.1" height="107"/>
		<rect x="693.5" y="485.8" class="st17" width="112.6" height="107"/>
		<path class="st14" d="M267.8,583.9l-21.3-9.5l24.6-9.5l1-5.5l-32.2,12.3l-0.9,5.4l27.9,12.3L267.8,583.9z M315.8,577.8l-5.3,30.5
			h7.6l11.7-67.8h-7.6l-5.3,30.5h-16.6l5.3-30.5H298l-11.7,67.8h7.6l5.3-30.5H315.8z M343,608.3l10.6-60.9H366l1.2-6.8h-32.5
			l-1.2,6.8h12.5l-10.6,60.9H343z M405.8,553.8l-9.4,54.5h7.2l11.7-67.8h-10.6l-20.1,54.1l-1.8-54.1h-10.6l-11.8,67.8h6.6l9.4-54
			l1.9,54h7.2L405.8,553.8z M438.2,608.3l1.2-6.9h-19.3l10.5-60.9h-7.5l-11.8,67.8H438.2z M462.2,589.4l32.1-12.3l0.9-5.4
			l-27.9-12.3l-0.9,5.5l21.3,9.5l-24.6,9.5L462.2,589.4z"/>
		<path class="st7" d="M640.3,680.7l-17-7.5l19.3-7.5l0.6-4.3L618,671l-0.6,4.3l22.3,9.7L640.3,680.7z M663.4,646.4l-8,53.6h12.5
			c8.4,0,13-5,14.2-13.3l4-27c1.3-8.3-1.8-13.3-10.1-13.3H663.4z M662.2,694.6l6.4-42.7h6.4c4.3,0,6,2.7,5.3,7.6l-4.1,27.6
			c-0.7,4.9-3.2,7.6-7.5,7.6H662.2z M693.7,646.4l-8,53.6h6l8-53.6H693.7z M704.3,646.4l2,53.6h8.9l18-53.6h-5.5L712.1,693
			l-1.8-46.6H704.3z M743.9,685.1l25.2-9.7l0.7-4.3l-22.3-9.7l-0.7,4.3l17,7.5l-19.3,7.5L743.9,685.1z"/>
	</g>
</g>
</svg>
