<?xml version="1.0" encoding="utf-8"?>
<!-- Generator: Adobe Illustrator 22.1.0, SVG Export Plug-In . SVG Version: 6.00 Build 0)  -->
<svg version="1.1" id="Layer_1" xmlns="http://www.w3.org/2000/svg" xmlns:xlink="http://www.w3.org/1999/xlink" x="0px" y="0px"
	 viewBox="0 0 300 300" style="enable-background:new 0 0 300 300;" xml:space="preserve">
<style type="text/css">
	.st0{fill:#FFFFFF;}
</style>
<rect x="0.1" width="299.2" height="299.2"/>
<g>
	<path class="st0" d="M33.8,193.9c1.6,0,3.2,0,4.8-0.1c1.6,0,2.9-0.1,4-0.1c9.6,0,14.4,2.7,14.4,8c0,2.1-0.7,4.1-2.2,5.9
		c-1.5,1.8-3.6,3.2-6.4,4.3c-2.8,1.1-6.1,1.7-9.9,1.8c3.3,0,6.1,0.3,8.5,1.1c2.4,0.8,4.2,1.8,5.4,3.2c1.2,1.4,1.9,2.9,1.9,4.7
		c0,2.7-0.8,5.1-2.5,7.1s-4,3.5-7.1,4.5c-3.1,1-6.8,1.5-11.1,1.5c-0.9,0-2.3,0-4.2-0.1c-1.9-0.1-4-0.1-6.3-0.1
		c-4.5,0-8,0.1-10.5,0.2l0.2-1.2c1.4-0.1,2.5-0.2,3.2-0.5c0.7-0.3,1.3-0.7,1.7-1.4c0.4-0.7,0.8-1.8,1.2-3.2l7.8-29.4
		c0.3-1.3,0.5-2.2,0.5-2.9c0-0.8-0.3-1.3-0.9-1.7c-0.6-0.3-1.6-0.5-3.2-0.6l0.3-1.2C25.9,193.8,29.3,193.9,33.8,193.9z M30.4,232.1
		c0,1.5,0.8,2.2,2.3,2.2c1.7,0,3.2-0.6,4.5-1.9c1.4-1.2,2.4-2.9,3.2-4.9c0.8-2,1.2-4,1.2-6.2c0-2.1-0.4-3.8-1.3-5.1
		c-0.9-1.3-2.3-2-4.4-2h-1.1l-4,15C30.6,230.6,30.4,231.5,30.4,232.1z M41.1,211.5c1.4-1.3,2.5-2.9,3.2-5c0.7-2.1,1.1-4.2,1.1-6.6
		c0-1.6-0.2-2.8-0.7-3.7c-0.5-0.9-1.3-1.3-2.6-1.3c-0.6,0-1,0.1-1.4,0.3c-0.3,0.2-0.7,0.6-0.9,1.2c-0.3,0.6-0.5,1.5-0.9,2.6
		l-3.8,14.3H36C38,213.4,39.7,212.8,41.1,211.5z"/>
	<path class="st0" d="M67.3,231.8c0,0.5,0.1,0.8,0.3,1.1c0.2,0.2,0.5,0.3,0.8,0.3c0.4,0,0.8-0.2,1.4-0.7c0.5-0.5,1.1-1.5,1.6-3
		l1.2-3.3h1.1l-1.5,4.3c-0.8,2.3-2,3.9-3.5,4.8c-1.5,0.9-3.2,1.3-4.9,1.3c-2,0-3.5-0.5-4.6-1.5s-1.7-2.5-1.7-4.5
		c0-1.2,0.2-2.6,0.7-4.2l9.1-30.2c0.2-0.7,0.3-1.3,0.3-1.7c0-0.8-0.3-1.4-0.9-1.7c-0.6-0.4-1.7-0.5-3.1-0.5l0.4-1.2
		c3.1,0,6-0.2,8.5-0.6c2.5-0.4,5-1,7.4-1.8l-12.5,42.1C67.4,231.1,67.3,231.5,67.3,231.8z"/>
	<path class="st0" d="M108.2,226.1l-1.5,4.3c-1.4,4.1-4.3,6.1-8.5,6.1c-2.4,0-4.2-0.7-5.2-2.1c-0.7-0.9-1-2.1-1-3.6c0-0.4,0-0.8,0-1
		c-0.9,2.5-2.2,4.2-3.7,5.2c-1.5,1-3.3,1.5-5.3,1.5c-2.5,0-4.3-0.6-5.5-1.9c-1.2-1.3-1.8-3.1-1.8-5.5c0-3.7,1-7.5,3-11.5
		c2-3.9,4.5-7.2,7.5-9.7c3-2.6,5.9-3.9,8.6-3.9c2.2,0,3.5,1.1,3.7,3.4l0.8-2.5c3.9-0.1,7.5-0.4,10.7-0.9l-8,26.6
		c-0.2,0.5-0.3,1-0.3,1.4c0,0.7,0.3,1,1,1c1.2,0,2.2-1.2,3.2-3.7l1.2-3.3H108.2z M98,208.7c0-1.1-0.4-1.7-1.1-1.7
		c-1.1,0-2.5,1.1-4.1,3.4c-1.6,2.3-3,5.2-4.1,8.6c-1.1,3.5-1.7,6.9-1.7,10.3c0,1.2,0.1,2,0.3,2.4c0.2,0.5,0.6,0.7,1.1,0.7
		c0.8,0,1.6-0.6,2.3-1.7c0.8-1.1,1.7-3.1,2.6-6l4.6-15.4C97.9,209.1,98,208.9,98,208.7z"/>
	<path class="st0" d="M121.4,236.6c-2.1,0-3.9-0.3-5.5-1c-1.6-0.7-2.8-1.7-3.7-3.1c-0.9-1.4-1.3-3.1-1.3-5.2c0-3.5,0.9-7.1,2.7-10.7
		c1.8-3.6,4.4-6.6,7.7-8.9c3.3-2.3,7.1-3.5,11.3-3.5c1.6,0,3,0.3,4.1,0.8c1.2,0.6,2.1,1.3,2.7,2.2c0.6,0.9,0.9,2,0.9,3.1
		c0,1.3-0.3,2.5-1,3.7c-0.6,1.2-1.5,2.2-2.6,3c-1.1,0.8-2.2,1.1-3.4,1.1c-0.7,0-1.4-0.2-2-0.5c-0.6-0.3-1.1-0.8-1.5-1.4
		c-0.4-0.6-0.6-1.4-0.6-2.3c0-1.2,0.3-2.4,0.8-3.5c0.6-1.1,1.3-2,2.2-2.8c0.9-0.8,1.9-1.3,3-1.6c-0.5-0.5-1.2-0.7-2-0.7
		c-1.9,0-3.8,1.1-5.5,3.2c-1.8,2.1-3.2,4.8-4.3,8.2c-1.1,3.3-1.6,6.7-1.6,10.2c0,2,0.4,3.6,1.3,4.6c0.8,1,2,1.5,3.5,1.5
		c1.3,0,2.5-0.4,3.6-1.1c1.2-0.7,2.3-1.9,3.5-3.7l1.2,0.5C131.6,233.9,127,236.6,121.4,236.6z"/>
	<path class="st0" d="M157.6,215.5c0.8-1.2,1.6-3,2.4-5.3c0.8-2.4,1.6-3.9,2.5-4.7c0.6-0.5,1.2-0.8,1.9-1c0.7-0.2,1.3-0.3,1.9-0.3
		c1.5,0,2.7,0.3,3.7,0.9s1.8,1.4,2.3,2.5c0.5,1,0.8,2.2,0.8,3.4c0,1.3-0.3,2.3-0.8,3.2c-0.5,0.9-1.3,1.6-2.2,2.1
		c-0.9,0.5-1.9,0.7-3,0.7c-1.5,0-2.7-0.4-3.5-1.2c-0.9-0.8-1.3-1.8-1.3-2.9c0-1.5,0.5-2.8,1.5-4c1-1.2,2.3-2.1,3.8-2.7
		c-0.1-0.2-0.3-0.4-0.6-0.6c-0.3-0.1-0.6-0.2-0.8-0.2c-1,0-2,0.3-2.8,1c-0.8,0.6-1.5,2.1-2.3,4.3c-0.8,2.2-1.5,4-2.3,5.3
		c-0.8,1.3-2,2.2-3.7,2.7c7.2,0,10.9,2.3,10.9,6.7c0,0.7-0.1,1.4-0.2,2.1l-0.7,3.4c-0.1,0.6-0.2,1-0.2,1.4c0,0.8,0.3,1.1,0.9,1.1
		c1.2,0,2.2-1.2,3.2-3.7l1.2-3.3h1.1l-1.5,4.3c-1.5,4.1-4.7,6.1-9.5,6.1c-3.8,0-5.7-1.7-5.7-5.2c0-0.8,0.1-1.6,0.3-2.4l1-4.2
		c0.3-1,0.4-1.8,0.4-2.5c0-0.9-0.2-1.6-0.7-2.1c-0.5-0.5-1.2-0.9-2.2-1.1l-4.9,16.7H138l11.7-39.6c0.2-0.7,0.3-1.3,0.3-1.7
		c0-0.8-0.3-1.4-0.9-1.7c-0.6-0.4-1.7-0.5-3.1-0.5l0.4-1.2c3.1,0,6-0.2,8.5-0.6c2.5-0.4,5-1,7.4-1.8l-8.6,29.3
		C155.5,217.5,156.8,216.7,157.6,215.5z"/>
</g>
<g>
	<path class="st0" d="M50.6,258.5h-1.2c0.3-1.1,0.4-2.1,0.4-3.2c0-2.4-0.8-4.3-2.3-5.6c-1.5-1.4-3.6-2-6.3-2c-1.9,0-3.4,0.5-4.6,1.4
		c-1.2,0.9-1.8,2.4-1.8,4.3c0,2.6,1.4,5.6,4.3,8.9c2.9,3.4,5.1,6.1,6.6,8.2c1.5,2.1,2.3,4.5,2.3,7.2c0,2.7-0.9,4.9-2.8,6.7
		c-1.8,1.8-4.1,3.1-6.7,4c-2.7,0.8-5.3,1.3-7.8,1.3c-2,0-3.7-0.1-4.9-0.3c-1.3-0.2-2.4-0.5-3.3-0.8c-0.9-0.4-2-0.9-3.3-1.6
		c-1-0.6-1.7-0.9-2-0.9c-0.4,0-0.7,0.1-0.9,0.3c-0.2,0.2-0.5,0.5-0.7,0.9c-0.2,0.4-0.5,1.1-0.9,2h-1.2c1.3-3.1,2.7-7.9,4.1-14.2h1.2
		c-0.4,1-0.6,2.4-0.6,4.1c0,3,0.8,5.3,2.5,6.9c1.7,1.6,4.1,2.3,7.2,2.3c2.6,0,4.4-0.5,5.4-1.4c1-1,1.5-2.3,1.5-4
		c0-2.2-0.5-4.3-1.5-6.1c-1-1.8-3-4.6-6-8.3c-3-3.7-4.4-7.2-4.4-10.3c0-2.6,0.8-4.8,2.4-6.6c1.6-1.8,3.6-3.2,6-4.1
		c2.4-0.9,4.8-1.3,7.2-1.3c1.7,0,3.2,0.2,4.5,0.5c1.3,0.3,2.3,0.6,3,0.9c0.7,0.3,1.6,0.8,3,1.4c0.2,0.1,0.5,0.3,1,0.5
		c0.5,0.2,0.8,0.3,1,0.3c0.3,0,0.6-0.2,0.9-0.7c0.3-0.5,0.6-1.3,1-2.4h1.2C52.6,250.1,51.4,254.1,50.6,258.5z"/>
	<path class="st0" d="M84.4,279.2l-1.5,4.3c-1.4,4.1-4.2,6.1-8.5,6.1c-2.1,0-3.7-0.5-4.7-1.5c-1-1-1.5-2.4-1.5-4.1
		c0-1.4,0.3-2.9,0.8-4.6l5.1-15.4c0.3-1,0.5-1.8,0.5-2.3c0-0.6-0.2-0.9-0.6-0.9c-0.9,0-2,1-3.3,3.1c-1.3,2-2.7,4.7-4.2,8.1
		c-1.4,3.4-2.8,6.9-4,10.7l-1.7,5.6l-0.1,0.2v-0.1l-0.1,0.2H50.3L62,249.3c0.2-0.7,0.3-1.3,0.3-1.7c0-0.8-0.3-1.4-0.9-1.7
		c-0.6-0.4-1.7-0.5-3.1-0.5l0.4-1.2c3.1,0,6-0.2,8.5-0.6c2.5-0.4,5-1,7.4-1.8l-7.7,26.2c1.3-2.8,2.6-5,3.8-6.5
		c1.3-1.5,2.5-2.6,3.8-3.2c1.3-0.6,2.8-0.9,4.4-0.9c3.9,0,5.8,1.6,5.8,4.9c0,1.1-0.3,2.5-0.8,4.1l-5.9,17.6c-0.2,0.6-0.3,1-0.3,1.4
		c0,0.7,0.3,1.1,1,1.1c1.2,0,2.2-1.2,3.2-3.7l1.2-3.3H84.4z"/>
	<path class="st0" d="M105.8,287.4c-2.6,1.5-5.5,2.3-8.9,2.3c-1.9,0-3.6-0.3-5.2-1c-1.6-0.6-2.8-1.6-3.7-2.9
		c-0.9-1.3-1.4-2.8-1.4-4.5c0-3.9,1-7.7,3-11.4c2-3.7,4.7-6.8,8.2-9.1c3.5-2.4,7.3-3.5,11.5-3.5c2.2,0,4,0.4,5.3,1.3
		c1.3,0.9,2,2.2,2,3.9c0,2.3-0.9,4.3-2.7,6.2c-1.8,1.9-4.1,3.5-7,4.8c-2.8,1.3-5.9,2.4-9.1,3.1c-0.1,1.1-0.2,2.1-0.2,3
		c0,2.2,0.4,3.7,1.2,4.5c0.8,0.8,2.1,1.2,3.7,1.2c1,0,2.3-0.3,3.8-1c1.6-0.7,3.1-1.7,4.5-3.1l0.9,0.5
		C110.4,284,108.3,285.9,105.8,287.4z M104.3,260.9c-1.4,1.7-2.6,3.9-3.8,6.6c-1.1,2.7-1.9,5.4-2.4,8.1c2-1.1,3.9-2.5,5.4-4
		c3.6-3.6,5.4-7.4,5.4-11.7c0-1-0.3-1.5-1-1.5C106.9,258.4,105.6,259.2,104.3,260.9z"/>
	<path class="st0" d="M135.2,287.4c-2.6,1.5-5.5,2.3-8.9,2.3c-1.9,0-3.6-0.3-5.2-1c-1.6-0.6-2.8-1.6-3.7-2.9
		c-0.9-1.3-1.4-2.8-1.4-4.5c0-3.9,1-7.7,3-11.4c2-3.7,4.7-6.8,8.2-9.1c3.5-2.4,7.3-3.5,11.5-3.5c2.2,0,4,0.4,5.3,1.3
		c1.3,0.9,2,2.2,2,3.9c0,2.3-0.9,4.3-2.7,6.2c-1.8,1.9-4.1,3.5-7,4.8c-2.8,1.3-5.9,2.4-9.1,3.1c-0.1,1.1-0.2,2.1-0.2,3
		c0,2.2,0.4,3.7,1.2,4.5c0.8,0.8,2.1,1.2,3.7,1.2c1,0,2.3-0.3,3.8-1c1.6-0.7,3.1-1.7,4.5-3.1l0.9,0.5
		C139.8,284,137.8,285.9,135.2,287.4z M133.7,260.9c-1.4,1.7-2.6,3.9-3.8,6.6c-1.1,2.7-1.9,5.4-2.4,8.1c2-1.1,3.9-2.5,5.4-4
		c3.6-3.6,5.4-7.4,5.4-11.7c0-1-0.3-1.5-1-1.5C136.3,258.4,135.1,259.2,133.7,260.9z"/>
	<path class="st0" d="M167.2,258.9c1.4-1.1,3-1.6,4.7-1.6c2.7,0,4.8,0.8,6.1,2.5c1.4,1.7,2,4.1,2,7.2c0,3.3-0.7,6.7-2.2,10.2
		c-1.5,3.6-3.6,6.5-6.3,9c-2.7,2.4-5.9,3.6-9.5,3.6c-2.2,0-4.1-0.4-5.6-1.2l-1.2,4.3c-0.3,1.1-0.5,2-0.5,2.6c0,1.1,0.4,1.9,1.2,2.3
		c0.8,0.4,2,0.6,3.7,0.7l-0.3,1.2c-0.6,0-2-0.1-4.1-0.1c-2.1-0.1-4.2-0.1-6.2-0.1c-1.9,0-3.8,0-5.8,0.1c-2,0.1-3.3,0.1-3.7,0.1
		l0.3-1.2c1,0,1.7-0.1,2.3-0.3c0.6-0.2,1-0.6,1.4-1.1c0.3-0.5,0.7-1.3,0.9-2.2l10.6-38.1c-1,2.4-2.2,4.6-3.6,6.5c-1.4,1.9-3,4-4.9,6
		l-0.7-0.8c1.7-1.9,3.1-3.6,4.2-5c1.1-1.4,2.2-3.2,3.3-5.3c1.1-2.1,2.3-4.7,3.4-7.7c3.9-0.3,7.6-1.1,11.1-2.3l-4.5,16
		C164.5,261.7,165.8,259.9,167.2,258.9z M158.2,287.7c1.7,0,3.4-1.1,5.1-3.3c1.7-2.2,3.1-5,4.1-8.4c1.1-3.4,1.6-6.7,1.6-9.9
		c0-1.4-0.1-2.4-0.2-3.1s-0.3-1.2-0.5-1.4c-0.2-0.2-0.5-0.3-0.8-0.3c-0.9,0-1.8,0.7-2.8,2c-1,1.3-1.9,3.1-2.8,5.4l-5.3,18.9
		C157.2,287.6,157.7,287.7,158.2,287.7z"/>
	<path class="st0" d="M215,279.2l-1.5,4.3c-1.4,4.1-4.2,6.1-8.5,6.1c-2.5,0-4.3-0.8-5.3-2.3c-0.6-0.8-0.9-2-0.9-3.3
		c0-0.8,0.1-1.7,0.3-2.6c-1.3,2.8-2.7,4.9-4.2,6.2c-1.6,1.3-3.5,2-5.8,2c-1.4,0-2.7-0.3-3.9-0.9c-1.1-0.6-2.1-1.6-2.8-2.9
		c-0.7-1.3-1-2.9-1-4.9c0-3.1,0.8-6.6,2.4-10.3c1.6-3.7,3.9-6.9,7-9.6c3.1-2.6,6.6-3.9,10.7-3.9c1.9,0,3.1,0.5,3.6,1.5l2.5-9.4
		c0.2-0.7,0.3-1.3,0.3-1.7c0-0.8-0.3-1.4-0.9-1.7c-0.6-0.4-1.7-0.5-3.1-0.5l0.4-1.2c5.9-0.1,11.3-0.9,16.1-2.4l-11.6,42.1
		c-0.2,0.6-0.3,1-0.3,1.4c0,0.7,0.3,1.1,1,1.1c1.2,0,2.2-1.2,3.1-3.7l1.2-3.3H215z M204.2,259c-0.3-0.2-0.7-0.3-1.2-0.3
		c-1.2,0-2.7,1.2-4.3,3.5c-1.7,2.3-3.1,5.4-4.3,9.1c-1.2,3.7-1.8,7.5-1.8,11.4c0,1.2,0.1,2.1,0.3,2.6c0.2,0.5,0.6,0.8,1.1,0.8
		c0.6,0,1.2-0.4,2-1.3c0.8-0.9,1.6-2.2,2.6-4.1c0.9-1.9,1.8-4.3,2.7-7.2l1.8-6.8l0-0.1v0l1.7-6.5C204.7,259.6,204.5,259.2,204.2,259
		z"/>
	<path class="st0" d="M220,269.4c1.5-3.5,3.9-6.3,7-8.7c3.1-2.3,6.9-3.5,11.4-3.5c3.4,0,6.1,0.9,7.9,2.6s2.7,4.2,2.7,7.5
		c0,3.3-0.8,6.7-2.3,10.2c-1.5,3.5-3.9,6.3-7,8.7c-3.1,2.3-6.9,3.5-11.3,3.5c-3.4,0-6.1-0.9-7.9-2.6c-1.8-1.7-2.7-4.2-2.7-7.5
		C217.7,276.3,218.4,272.8,220,269.4z M233.8,262.9c-1.7,3-3.2,6.6-4.4,10.8c-1.3,4.2-1.9,8.1-1.9,11.5c0,1.2,0.1,2.1,0.3,2.6
		c0.2,0.5,0.5,0.8,0.9,0.8c1.1,0,2.4-1.4,4.1-4.3c1.7-2.9,3.1-6.4,4.4-10.5c1.3-4.2,1.9-8.1,1.9-11.8c0-1.4-0.1-2.3-0.3-2.8
		c-0.2-0.5-0.4-0.7-0.7-0.7C236.9,258.4,235.5,259.9,233.8,262.9z"/>
	<path class="st0" d="M251.8,286.8c-0.7-0.7-1.1-1.5-1.1-2.5c0-1.1,0.5-2.1,1.5-3c1-0.9,2.3-1.8,3.8-2.5c1.6-0.8,3.7-1.7,6.3-2.7
		c-3-0.1-5.3-0.7-7.1-1.8c-1.8-1.1-2.7-2.8-2.7-5.1c0-1.9,0.7-3.8,2-5.6c1.4-1.8,3.3-3.3,5.8-4.5c2.5-1.2,5.4-1.8,8.6-1.8
		c0.9,0,1.8,0,2.6,0.1c0.9-2,1.8-3.6,2.6-5c0.8-1.3,1.7-2.4,2.7-3.2c1.1-0.9,2.4-1.4,3.7-1.4c1.3,0,2.4,0.4,3.2,1.1
		c0.8,0.7,1.2,1.7,1.2,3c0,1-0.2,2-0.7,3c-0.5,1-1.2,1.7-2,2.3c-0.9,0.6-1.8,0.9-2.8,0.9c-1.1,0-1.9-0.3-2.6-1c-0.6-0.6-1-1.4-1-2.4
		c0-0.8,0.2-1.6,0.7-2.4c0.5-0.8,1.2-1.6,2.1-2.4c-0.2-0.1-0.4-0.1-0.5-0.1c-0.4,0-0.7,0.2-1,0.5c-0.6,0.6-1.4,1.6-2.3,3
		c-0.9,1.4-1.6,2.8-2.3,4.3c2,0.4,3.6,1.1,4.7,2.2s1.7,2.5,1.7,4.3c0,1.8-0.6,3.6-1.8,5.3c-1.2,1.7-2.8,3.2-5,4.4
		c-2.2,1.2-4.7,1.9-7.5,2.2c-3.3,1.2-4.9,2.2-4.9,3.2c0,0.3,0.2,0.6,0.5,0.8c0.3,0.2,0.9,0.4,1.6,0.7l5.4,2c4.5,1.7,6.7,4,6.7,7
		c0,2.4-1,4.3-3,5.9c-2,1.6-4.4,2.7-7.3,3.5c-2.9,0.7-5.6,1.1-8.2,1.1c-2.5,0-4.6-0.2-6.3-0.6c-1.8-0.4-3.1-0.9-4.1-1.6
		c-0.9-0.7-1.4-1.5-1.4-2.5c0-1.4,0.7-2.4,2-3.1c1.3-0.6,3.2-1.2,5.7-1.8c2.5-0.5,4.2-1,5.2-1.4l-2.3-0.7
		C253.5,288,252.5,287.5,251.8,286.8z M255.3,293.8c-0.5,1.4-0.8,2.5-0.8,3.5c0,0.6,0.2,1.1,0.5,1.3c0.3,0.3,0.8,0.4,1.5,0.4
		c1.4,0,2.8-0.2,4.3-0.7c1.5-0.5,2.7-1.1,3.7-1.9c1-0.8,1.5-1.8,1.5-2.8c0-0.5-0.2-0.9-0.5-1.3c-0.3-0.3-0.7-0.6-1.1-0.7
		c-0.4-0.2-1-0.4-1.9-0.6l-4.8-1.5C256.7,290.9,255.8,292.4,255.3,293.8z M266.6,273c0.8-1.2,1.4-2.9,1.9-4.9c0.5-2,0.7-4,0.7-6.2
		c0-1.3-0.1-2.2-0.3-2.8c-0.2-0.6-0.6-0.9-1.2-0.9c-0.9,0-1.7,0.6-2.5,1.9c-0.8,1.2-1.4,2.9-1.9,4.9c-0.5,2-0.7,4.1-0.7,6.3
		c0,1.3,0.1,2.2,0.3,2.8c0.2,0.5,0.6,0.8,1.1,0.8C264.9,274.9,265.8,274.3,266.6,273z"/>
</g>
</svg>
