<svg xmlns="http://www.w3.org/2000/svg" viewBox="0 0 99.04 99.04"><defs><style>.a,.b{fill:#262626;}.b{fill-rule:evenodd;}</style></defs><title>Untitled-1</title><path class="a" d="M683.15,334.89a49.51,49.51,0,1,1-35,14.5,49.38,49.38,0,0,1,35-14.5Zm32.3,17.24a45.69,45.69,0,1,0,13.36,32.28,45.62,45.62,0,0,0-13.36-32.28Z" transform="translate(-633.64 -334.89)"/><path class="b" d="M686.94,374.29v-4.06a2.12,2.12,0,0,1,2.22-2.41h5.67v-8.67H687c-8.69,0-10.64,6.42-10.64,10.59v4.55h-5v10.12h5.1v25.28h10.11V384.41H694l.33-4,.6-6.14Z" transform="translate(-633.64 -334.89)"/></svg>