<svg xmlns="http://www.w3.org/2000/svg" viewBox="0 0 99.04 99.04"><defs><style>.a,.b{fill:#262626;}.b{fill-rule:evenodd;}</style></defs><title>ins</title><path class="a" d="M682.85,335a49.51,49.51,0,1,1-35,14.5,49.36,49.36,0,0,1,35-14.5Zm32.27,17.25a45.6,45.6,0,1,0,13.38,32.27,45.36,45.36,0,0,0-13.38-32.27Z" transform="translate(-633.33 -334.97)"/><path class="b" d="M660.5,385v21.88h10.42V377H660.5ZM705,386.19c-.69-5.65-3.27-9.16-10.89-9.16-4.47,0-7.48,1.64-8.75,4h-.13v-4h-8.31v29.8h8.69V392.05c0-3.89.77-7.65,5.54-7.65s5.15,4.45,5.15,7.93v14.5h8.94V390.46a35.41,35.41,0,0,0-.24-4.27Zm-39.24-24.05a5.21,5.21,0,1,0,5.21,5.21,5.21,5.21,0,0,0-5.21-5.21Z" transform="translate(-633.33 -334.97)"/></svg>