<svg xmlns="http://www.w3.org/2000/svg" viewBox="0 0 99.04 99.06"><defs><style>.a,.b{fill:#262626;}.b{fill-rule:evenodd;}</style></defs><title>twitter</title><path class="a" d="M682.85,334.91a49.52,49.52,0,1,1-35,14.51,49.45,49.45,0,0,1,35-14.51Zm32.27,17.25a45.64,45.64,0,1,0,13.38,32.3,45.5,45.5,0,0,0-13.38-32.3Z" transform="translate(-633.33 -334.91)"/><path class="b" d="M708.13,369a21.87,21.87,0,0,1-6,1.62,10.25,10.25,0,0,0,4.58-5.67,21.51,21.51,0,0,1-6.61,2.49,10.42,10.42,0,0,0-18,7,10.93,10.93,0,0,0,.3,2.34,29.46,29.46,0,0,1-21.39-10.67,10.34,10.34,0,0,0-1.42,5.13,10.21,10.21,0,0,0,4.6,8.5,10.11,10.11,0,0,1-4.68-1.26v.13a9.57,9.57,0,0,0,.71,3.68,10.32,10.32,0,0,0,7.62,6.3,10,10,0,0,1-2.74.39,9.71,9.71,0,0,1-2-.22,10.47,10.47,0,0,0,9.68,7.13,21,21,0,0,1-12.86,4.36c-.85,0-1.64-.06-2.49-.14a29.91,29.91,0,0,0,15.9,4.58c16.2,0,26.21-11.22,28.82-22.87a28.51,28.51,0,0,0,.68-6.17v-1.32a21.43,21.43,0,0,0,5.16-5.29Z" transform="translate(-633.33 -334.91)"/></svg>