<svg xmlns="http://www.w3.org/2000/svg" viewBox="0 0 99.04 99.06"><defs><style>.a,.b{fill:#262626;}.b{fill-rule:evenodd;}</style></defs><title>youtube</title><path class="a" d="M682.91,334.91a49.52,49.52,0,1,1-35,14.51,49.46,49.46,0,0,1,35-14.51Zm32.28,17.25a45.66,45.66,0,1,0,13.37,32.3,45.51,45.51,0,0,0-13.37-32.3Z" transform="translate(-633.4 -334.91)"/><path class="b" d="M707.7,373.9s-.52-3.64-2-5.23a7.24,7.24,0,0,0-5-2.25c-7.08-.52-17.69-.52-17.69-.52h-.06s-10.58,0-17.65.52a7.18,7.18,0,0,0-5.07,2.25c-1.51,1.59-2,5.23-2,5.23a81,81,0,0,0-.52,8.5v4a79.47,79.47,0,0,0,.52,8.5s.52,3.65,2,5.27c1.92,2.11,4.44,2,5.59,2.25,4,.41,17.19.55,17.19.55s10.61-.06,17.69-.55a7.15,7.15,0,0,0,5-2.25c1.51-1.62,2-5.27,2-5.27a84.26,84.26,0,0,0,.49-8.5v-4c0-4.22-.49-8.5-.49-8.5Zm-16.34,10-13.68,7.38V376.45l6.19,3.38Z" transform="translate(-633.4 -334.91)"/></svg>